<?xml version="1.0" encoding="utf-8"?>
<!DOCTYPE svg PUBLIC "-//W3C//DTD SVG 1.1//EN" "http://www.w3.org/Graphics/SVG/1.1/DTD/svg11.dtd">
<svg version="1.1" id="Layer_1" xmlns="http://www.w3.org/2000/svg" xmlns:xlink="http://www.w3.org/1999/xlink" x="0px" y="0px"
	 width="382.582px" height="382.582px" viewBox="0 0 382.582 382.582" enable-background="new 0 0 382.582 382.582"
	 xml:space="preserve">
<linearGradient id="SVGID_1_" gradientUnits="userSpaceOnUse" x1="270.793" y1="329.6787" x2="111.7895" y2="54.2767">
	<stop  offset="0" style="stop-color:#FFD479"/>
	<stop  offset="1" style="stop-color:#FFEEA6"/>
</linearGradient>
<circle fill="url(#SVGID_1_)" cx="191.292" cy="191.977" r="158.977"/>
<path fill="#2D2D2D" d="M344.3,121.307c-0.748-1.634-1.532-3.268-2.335-4.893c-5.557-11.196-12.214-21.505-19.74-30.843
	C273.761,25.437,188.442,4.828,116.421,40.61c-10.355,5.145-19.937,11.195-28.714,18.04c-61.779,48.137-83.302,134.642-47.1,207.503
	c41.357,83.219,142.335,117.171,225.554,75.813c28.834-14.323,51.75-35.81,67.661-61.228c5.462-8.722,10.094-17.892,13.856-27.415
	c4.567-11.495,7.862-23.484,9.813-35.736C362.535,185.905,358.585,152.477,344.3,121.307z M261.715,333.021
	c-78.277,38.901-173.261,6.966-212.162-71.313C15.498,193.171,35.742,111.801,93.86,66.522
	c-28.247,45.101-33.083,103.415-7.657,154.567c38.893,78.278,133.875,110.204,212.153,71.313
	c9.739-4.837,18.75-10.542,27.005-16.976C310.394,299.34,288.842,319.548,261.715,333.021z"/>
<path fill="#94CE91" d="M317.467,173.986c0,5.707-5.373,10.333-12,10.333H128.443c-6.627,0-12-4.627-12-10.333v-10.333
	c0-5.707,5.373-10.334,12-10.334h177.023c6.627,0,12,4.627,12,10.334V173.986z"/>
<path fill="#74AEDE" d="M331.586,119.066h-157.75c-6.631,0-12-4.64-12-10.34v-10.33c0-5.71,5.369-10.33,12-10.33h137.439
	c0.42,0.5,0.83,1,1.24,1.51c1.32,1.63,2.609,3.3,3.869,4.99C322.055,102.156,327.156,110.336,331.586,119.066z"/>
<path fill="#FFEEA6" d="M283.365,229.121v10.334c0,5.709-5.381,10.333-12,10.333H166.834c-6.619,0-12-4.624-12-10.333v-10.334
	c0-5.7,5.381-10.333,12-10.333h104.531C277.984,218.788,283.365,223.421,283.365,229.121z"/>
<path fill="#F3777A" d="M345.586,218.786c-0.16,1.26-0.35,2.52-0.551,3.779c-0.129,0.83-0.27,1.671-0.41,2.5
	c-0.01,0.07-0.029,0.15-0.039,0.221c-0.91,5.17-2.061,10.29-3.441,15.34c-0.84,3.08-1.77,6.13-2.779,9.16h-28.039
	c-6.641,0-12-4.62-12-10.33v-10.33c0-5.71,5.359-10.34,12-10.34H345.586z"/>
</svg>
