<svg xmlns="http://www.w3.org/2000/svg" width="266.667" height="266.667" version="1.0" viewBox="0 0 200 200"><path d="M91.5 30.1c-17.3 1.7-36 11.4-42.3 21.9-7 11.7-9.8 24.5-8.9 39.5.8 10.9 2.6 17.6 7.9 27.6 17.2 33.4 59.1 46.6 93.4 29.4 8.7-4.4 16.8-11.4 19.6-16.8 1.9-3.9 6.8-17.3 6.8-18.6 0-.3-.5.2-1.1 1.1-.9 1.6-2.7 1.8-15.4 1.8-13.2 0-14.5-.2-15.5-1.9-1.2-2.3-1.3-11.1-.1-12.9.6-1 4.5-1.2 17-1l16.3.3-.7-6.8c-3.9-39.6-37.6-67.5-77-63.6zm64 51.4v7l-43.9.3c-31.6.1-44.3-.1-45.2-.9-1.8-1.4-1.9-11-.2-12.7.9-.9 11.8-1.2 45.3-1l44 .3v7zm-29.7 26.3l.3 7.2-18.3-.2-18.3-.3-.3-5.9c-.2-3.2-.1-6.5.2-7.3.5-1.1 3.9-1.3 18.3-1.1l17.8.3.3 7.3z"/></svg>