<svg xmlns="http://www.w3.org/2000/svg" width="933.333" height="933.333" version="1" viewBox="0 0 700 700">
  <path d="M331.5 42.6c-2.2.2-8.9.9-15 1.5-56.1 5.6-114.5 29.8-160.2 66.5-13.5 10.8-37.1 34.7-47.3 47.8-19.8 25.5-38.5 59-48.4 86.8-13.1 36.5-19.7 78.4-18.2 114.8 1.9 46.7 12.2 86.9 32.7 128 15.4 30.7 33 55.1 57.4 79.5s48.8 42 79.5 57.4c32.7 16.3 63 25.6 101 30.7 15.8 2.2 54.7 2.5 70.5.6 24.1-3 52.4-9.7 74.2-17.7 13.1-4.8 43.3-19.9 56.1-27.9 71.1-44.8 121.2-117.3 137.7-199.1 4.7-23.4 5.9-35.4 5.9-61.5 0-25.3-1.3-38.9-5.5-60-12.9-65.1-48.6-127.2-97.8-170.4-47.4-41.5-103.7-66.9-166.6-75.1-11.4-1.5-47.5-2.7-56-1.9zM165 133.2c-18 31-30.6 69.6-35.6 108.5-2 15.3-2.3 49.2-.5 63.8 8.1 69 36.9 128.9 84.7 176.1 44 43.5 99.3 71 162.4 80.9 16.1 2.5 55 3.1 72.4 1.1 40.6-4.7 77.5-16.7 112.1-36.4 8.9-5.1 24-14.9 29.8-19.4 2-1.7 3.7-2.6 3.7-2.1 0 1.5-18.2 25.8-26.8 35.6-40.5 46.6-98.6 80.1-160.8 92.6-31.4 6.4-71.6 6.9-104.4 1.5-67.3-11.2-130-47.1-173.7-99.4-30.8-36.9-52.8-82.6-62.2-129.5-5.5-27.3-7-62.4-3.7-89.4 7.9-65.8 36.5-125.1 82.5-171.2 10.7-10.7 24.3-22.9 25.6-22.9.2 0-2.3 4.6-5.5 10.2zm407.7 32.5c9.4 11.4 20.8 28.6 30.1 45.5l3.2 5.8H311.3l-4.4-2.3c-2.4-1.3-5.7-4.3-7.4-6.6-3-4.3-3-4.3-3-18.4 0-13.2.2-14.5 2.4-18 3-5 8.7-8.6 14.8-9.7 2.6-.4 61.1-.8 130-.9l125.1-.1 3.9 4.7zm-2.8 117.9c3.4 1.7 6.2 4.1 7.9 6.6 2.3 3.6 2.6 5.1 3 15.6.3 7.3 0 13.4-.8 16.2-1.5 5.7-8 12.4-13.5 13.9-5.2 1.4-333.4 1.6-338.4.1-4.7-1.3-9.3-4.7-12.2-8.8-2.3-3.4-2.4-4.4-2.4-18.2 0-14.4.1-14.7 2.8-18.9 2-2.9 4.4-5 8-6.7l5.2-2.4h335.1l5.3 2.6zM502 401.1c6.3 1.4 11.6 5.2 14.1 10 1.8 3.7 2 5.5 1.7 18.8-.3 14.4-.4 14.9-3.1 18.4-1.6 2.1-4.7 4.7-7 6l-4.2 2.2-100.5.3c-76.5.2-101.6 0-104.9-.9-6.1-1.7-12.5-8.1-14.1-13.9-1.8-6.5-.9-26.6 1.3-30.7 2.3-4.3 7.8-8.4 13.5-9.9 6.1-1.6 196.1-1.9 203.2-.3z"/>
</svg>
